<?xml version="1.0" encoding="UTF-8" standalone="no"?><!DOCTYPE svg PUBLIC "-//W3C//DTD SVG 1.1//EN" "http://www.w3.org/Graphics/SVG/1.1/DTD/svg11.dtd"><svg width="100%" height="100%" viewBox="0 0 4000 1000" version="1.1" xmlns="http://www.w3.org/2000/svg" xmlns:xlink="http://www.w3.org/1999/xlink" xml:space="preserve" xmlns:serif="http://www.serif.com/" style="fill-rule:evenodd;clip-rule:evenodd;stroke-linecap:round;"><path d="M1000,115l0,770c0,63.47 -51.53,115 -115,115l-770,0c-63.47,0 -115,-51.53 -115,-115l0,-770c0,-63.47 51.53,-115 115,-115l770,0c63.47,0 115,51.53 115,115Z" style="fill:#1a1a1a;"/><g id="Logo_new"><g><path d="M500,95c222.176,-0 405,182.824 405,405c0,222.176 -182.824,405 -405,405c-222.176,0 -405,-182.824 -405,-405c-0,-222.176 182.824,-405 405,-405Zm285.424,301.118c-43.57,-119.717 -158.035,-199.868 -285.434,-199.868c-166.632,0 -303.75,137.118 -303.75,303.75c0,166.632 137.118,303.75 303.75,303.75c127.399,0 241.863,-80.151 285.434,-199.868l-95.074,-48.532c-24.669,86.814 -104.537,147.15 -194.789,147.15c-111.088,0 -202.5,-91.412 -202.5,-202.5c0,-111.088 91.412,-202.5 202.5,-202.5c90.251,0 170.12,60.336 194.789,147.15l95.074,-48.532Z" style="fill:#fff8e9;"/><path d="M618.125,618.125l165.375,165.375" style="fill:none;fill-rule:nonzero;stroke:#f9c74f;stroke-width:67.5px;"/></g></g><text id="Compendiq" x="1064.82px" y="692.255px" style="font-family:'Helvetica';font-size:537.02px;fill:#1a1a1a;">C<tspan x="1444.583px 1735.193px 2174.48px 2465.089px 2755.699px 3046.309px 3336.919px " y="692.255px 692.255px 692.255px 692.255px 692.255px 692.255px 692.255px ">ompendi</tspan></text><g id="Q"><path d="M3761.869,554.017l0,138.238" style="fill:none;fill-rule:nonzero;stroke:#1a1a1a;stroke-width:40.28px;stroke-linecap:butt;"/><path d="M3627.682,692.207l138.238,0.057" style="fill:none;fill-rule:nonzero;stroke:#1a1a1a;stroke-width:40.28px;stroke-linecap:butt;"/><circle cx="3623.631" cy="554.017" r="138.238" style="fill:none;stroke:#1a1a1a;stroke-width:40.28px;stroke-linecap:butt;"/><path d="M3723.288,649.755l101.86,101.86" style="fill:none;fill-rule:nonzero;stroke:#f9c74f;stroke-width:40.28px;stroke-linejoin:bevel;"/></g></svg>