<svg xmlns="http://www.w3.org/2000/svg" viewBox="0 0 1000 1000" fill="none">
  <!-- Compendiq icon block, lifted from compendiq-lockup-horizontal.svg so the
       tab icon and the login lockup share one source of truth. -->
  <path d="M1000,115l0,770c0,63.47 -51.53,115 -115,115l-770,0c-63.47,0 -115,-51.53 -115,-115l0,-770c0,-63.47 51.53,-115 115,-115l770,0c63.47,0 115,51.53 115,115Z" fill="#1a1a1a"/>
  <path d="M500,95c222.176,0 405,182.824 405,405c0,222.176 -182.824,405 -405,405c-222.176,0 -405,-182.824 -405,-405c0,-222.176 182.824,-405 405,-405Zm285.424,301.118c-43.57,-119.717 -158.035,-199.868 -285.434,-199.868c-166.632,0 -303.75,137.118 -303.75,303.75c0,166.632 137.118,303.75 303.75,303.75c127.399,0 241.863,-80.151 285.434,-199.868l-95.074,-48.532c-24.669,86.814 -104.537,147.15 -194.789,147.15c-111.088,0 -202.5,-91.412 -202.5,-202.5c0,-111.088 91.412,-202.5 202.5,-202.5c90.251,0 170.12,60.336 194.789,147.15l95.074,-48.532Z" fill="#fff8e9"/>
  <path d="M618.125,618.125l165.375,165.375" stroke="#f9c74f" stroke-width="67.5" stroke-linecap="round"/>
</svg>
